PathFileType	4	(X/Y/Z)	E:\MAC3D_DATA\2020_06_02_vinay\TPose1.trc																																																																
DataRate	CameraRate	NumFrames	NumMarkers	Units	OrigDataRate	OrigDataStartFrame	OrigNumFrames																																																												
1000	200	9	22	mm	200	206	822																																																												
Frame#	Time	RAsis			LAsis			RPsi			LPsi			RThigh1			RThigh2			RThigh3			RKneeOut			RKneeIn			LThigh1			LThigh2			LThigh3			LKneeOut			LKneeIn			MidAsis			MidPsi			MidPelvis			RHJC			LHJC			MidHJC			RKJC			LKJC		
		X1	Y1	Z1	X2	Y2	Z2	X3	Y3	Z3	X4	Y4	Z4	X5	Y5	Z5	X6	Y6	Z6	X7	Y7	Z7	X8	Y8	Z8	X9	Y9	Z9	X10	Y10	Z10	X11	Y11	Z11	X12	Y12	Z12	X13	Y13	Z13	X14	Y14	Z14	X15	Y15	Z15	X16	Y16	Z16	X17	Y17	Z17	X18	Y18	Z18	X19	Y19	Z19	X20	Y20	Z20	X21	Y21	Z21	X22	Y22	Z22
																																																																			
206	1.025	33.9478	972.664	227.457	39.0411	972.557	-15.6287	-161.325	1020.24	153.803	-161.217	1020.85	71.0523	-66.9363	742.118	299.238	-153.777	642.403	270.425	-39.078	660.227	277.322	-113.716	507.553	278.185	-97.3973	492.846	162.786	-15.8681	654.185	-60.7115	-56.615	747.585	-93.6384	-112.295	650.446	-81.5887	-91.2211	504.456	-70.4437	-90.5981	492.104	44.4395	36.49	972.61	105.91	-161.27	1020.55	112.43	-62.39	996.58	109.17	-46.99	904.02	208.81	-45.84	914.22	2.82	-46.42	909.12	105.81	-105.56	500.20	220.49	-90.91	498.28	-13.00
207	1.03	33.9451	972.664	227.453	39.0321	972.557	-15.6352	-161.329	1020.25	153.808	-161.22	1020.85	71.0584	-66.9333	742.12	299.233	-153.781	642.405	270.426	-39.0805	660.227	277.317	-113.722	507.553	278.184	-97.4067	492.845	162.787	-15.8828	654.187	-60.7158	-56.6308	747.587	-93.6373	-112.31	650.448	-81.5866	-91.2335	504.457	-70.4441	-90.6054	492.105	44.4427	36.49	972.61	105.91	-161.27	1020.55	112.43	-62.39	996.58	109.17	-46.99	904.02	208.80	-45.86	914.23	2.82	-46.42	909.12	105.81	-105.56	500.20	220.49	-90.92	498.28	-13.00
208	1.035	33.9328	972.666	227.45	39.0129	972.56	-15.6398	-161.343	1020.25	153.816	-161.234	1020.85	71.0661	-66.9367	742.122	299.231	-153.79	642.408	270.428	-39.0887	660.229	277.314	-113.732	507.554	278.185	-97.4215	492.845	162.79	-15.9029	654.19	-60.7185	-56.6535	747.59	-93.6347	-112.331	650.451	-81.5831	-91.25	504.459	-70.4434	-90.6173	492.106	44.4462	36.47	972.61	105.91	-161.29	1020.55	112.44	-62.41	996.58	109.17	-47.00	904.02	208.80	-45.88	914.23	2.82	-46.44	909.12	105.81	-105.58	500.20	220.49	-90.93	498.28	-13.00
209	1.04	33.9087	972.67	227.449	38.981	972.567	-15.6416	-161.37	1020.25	153.825	-161.262	1020.85	71.0758	-66.948	742.125	299.232	-153.808	642.409	270.433	-39.104	660.233	277.313	-113.747	507.554	278.188	-97.4428	492.845	162.794	-15.9295	654.196	-60.7192	-56.6849	747.594	-93.6301	-112.36	650.454	-81.5777	-91.2716	504.462	-70.4413	-90.6348	492.107	44.45	36.44	972.62	105.90	-161.32	1020.55	112.45	-62.44	996.58	109.18	-47.02	904.02	208.81	-45.91	914.24	2.82	-46.47	909.13	105.81	-105.59	500.20	220.49	-90.95	498.28	-13.00
210	1.045	33.8701	972.676	227.451	38.9338	972.578	-15.6402	-161.413	1020.26	153.837	-161.305	1020.86	71.0879	-66.9692	742.13	299.237	-153.834	642.41	270.441	-39.1279	660.239	277.316	-113.769	507.555	278.192	-97.4716	492.847	162.801	-15.9641	654.203	-60.7177	-56.7266	747.6	-93.6234	-112.397	650.459	-81.5702	-91.2993	504.466	-70.4376	-90.6591	492.109	44.4543	36.40	972.63	105.91	-161.36	1020.56	112.46	-62.48	996.59	109.18	-47.06	904.02	208.81	-45.96	914.25	2.83	-46.51	909.14	105.82	-105.62	500.20	220.50	-90.98	498.29	-12.99
211	1.05	33.8146	972.685	227.454	38.8688	972.594	-15.6348	-161.475	1020.26	153.852	-161.367	1020.86	71.1028	-67.0019	742.135	299.246	-153.871	642.41	270.453	-39.1617	660.248	277.322	-113.799	507.555	278.2	-97.5091	492.85	162.811	-16.0079	654.214	-60.7138	-56.7805	747.608	-93.614	-112.445	650.466	-81.5603	-91.3342	504.472	-70.4321	-90.6912	492.111	44.4591	36.34	972.64	105.91	-161.42	1020.56	112.48	-62.54	996.60	109.19	-47.11	904.03	208.82	-46.02	914.26	2.83	-46.56	909.14	105.82	-105.65	500.20	220.51	-91.01	498.29	-12.99
212	1.055	33.7399	972.698	227.461	38.7836	972.615	-15.6248	-161.558	1020.26	153.871	-161.451	1020.86	71.121	-67.048	742.142	299.26	-153.92	642.408	270.469	-39.2067	660.26	277.333	-113.837	507.555	278.211	-97.5564	492.854	162.824	-16.0621	654.227	-60.707	-56.8482	747.618	-93.6015	-112.504	650.474	-81.5475	-91.3773	504.479	-70.4246	-90.7323	492.114	44.4647	36.26	972.66	105.92	-161.50	1020.56	112.50	-62.62	996.61	109.21	-47.18	904.04	208.83	-46.10	914.27	2.84	-46.64	909.15	105.84	-105.70	500.20	220.52	-91.05	498.30	-12.98
213	1.06	33.6438	972.713	227.471	38.6763	972.642	-15.6096	-161.664	1020.26	153.894	-161.558	1020.87	71.1429	-67.1089	742.149	299.279	-153.982	642.405	270.489	-39.2642	660.276	277.349	-113.884	507.555	278.225	-97.6141	492.86	162.841	-16.128	654.244	-60.6972	-56.9314	747.631	-93.5856	-112.577	650.485	-81.5316	-91.4296	504.489	-70.415	-90.7832	492.118	44.4712	36.16	972.68	105.93	-161.61	1020.57	112.52	-62.73	996.62	109.22	-47.27	904.05	208.84	-46.20	914.29	2.86	-46.74	909.17	105.85	-105.75	500.21	220.53	-91.11	498.30	-12.97
214	1.065	33.5249	972.733	227.484	38.5458	972.675	-15.5888	-161.795	1020.26	153.921	-161.69	1020.87	71.1686	-67.1859	742.157	299.304	-154.057	642.4	270.515	-39.3349	660.295	277.37	-113.94	507.554	278.242	-97.6827	492.869	162.861	-16.2061	654.265	-60.6843	-57.0308	747.647	-93.5659	-112.664	650.497	-81.5125	-91.4916	504.5	-70.4031	-90.8446	492.123	44.4788	36.04	972.70	105.95	-161.74	1020.57	112.54	-62.85	996.63	109.25	-47.39	904.06	208.86	-46.32	914.31	2.87	-46.85	909.18	105.86	-105.81	500.21	220.55	-91.17	498.31	-12.96
